<svg xmlns="http://www.w3.org/2000/svg" version="1.0" width="842.000000pt" height="474.000000pt" viewBox="0 0 842.000000 474.000000" preserveAspectRatio="xMidYMid meet" transform="matrix(1, 0, 0, 1, 0, 0)">

<g transform="translate(0.000000,474.000000) scale(0.100000,-0.100000)" fill="#ffffff" stroke="none">
<path d="M3423 2987 l-1243 -771 0 -618 c0 -549 2 -618 15 -618 9 0 577 349 1263 775 l1247 775 653 0 654 0 29 -29 c32 -33 38 -71 13 -96 -9 -9 -296 -183 -638 -387 -387 -231 -633 -383 -653 -405 -57 -63 -63 -98 -63 -380 l0 -253 775 0 775 0 0 1364 0 1364 -31 26 -31 26 -761 -1 -762 0 -1242 -772z" fill="#ffffff"/>
</g>
</svg>